<?xml version="1.0" standalone="no"?>
<!DOCTYPE svg PUBLIC "-//W3C//DTD SVG 20010904//EN"
 "http://www.w3.org/TR/2001/REC-SVG-20010904/DTD/svg10.dtd">
<svg version="1.0" xmlns="http://www.w3.org/2000/svg"
 width="490.000000pt" height="490.000000pt" viewBox="0 0 490.000000 490.000000"
 preserveAspectRatio="xMidYMid meet">

<g transform="translate(0.000000,490.000000) scale(0.100000,-0.100000)"
fill="#000000" stroke="none">
<path d="M1425 4740 c-626 -34 -1160 -194 -1354 -406 -99 -108 -94 -176 23
-289 352 -342 1486 -494 2376 -319 497 98 860 298 860 474 0 96 -114 205 -312
300 -375 179 -994 272 -1593 240z"/>
<path d="M2 3456 l3 -344 30 -44 c140 -199 582 -361 1170 -430 123 -15 764
-18 855 -5 54 8 58 10 127 91 179 207 455 389 727 480 89 30 240 62 384 82
l32 5 0 254 c0 140 -2 255 -4 255 -3 0 -25 -14 -50 -30 -71 -48 -261 -135
-381 -175 -207 -69 -440 -117 -730 -152 -187 -22 -777 -25 -950 -5 -508 58
-908 172 -1148 325 -32 21 -60 37 -63 37 -2 0 -3 -155 -2 -344z m432 -120 c65
-29 91 -64 91 -123 0 -53 -42 -101 -97 -110 -53 -8 -160 43 -183 88 -40 76 12
169 95 169 22 0 64 -11 94 -24z"/>
<path d="M3304 3050 c-644 -74 -1146 -529 -1281 -1160 -26 -121 -26 -449 0
-570 102 -475 425 -868 865 -1052 459 -192 991 -133 1397 154 302 213 519 554
591 928 24 128 24 378 0 510 -110 601 -584 1071 -1186 1176 -106 18 -292 25
-386 14z m196 -705 c61 -32 60 -16 60 -667 l0 -592 233 231 c254 253 265 261
340 230 70 -30 88 -116 38 -183 -16 -21 -172 -181 -347 -355 -339 -337 -347
-343 -417 -320 -23 8 -138 117 -375 354 l-342 343 0 51 c0 35 6 58 20 76 24
31 80 51 118 42 19 -4 102 -80 257 -235 127 -127 233 -230 237 -230 5 0 8 269
8 599 0 596 0 598 21 625 37 47 96 59 149 31z"/>
<path d="M0 2437 c0 -381 0 -380 89 -465 238 -228 883 -391 1549 -392 l122 0
0 58 c0 200 61 466 151 661 22 46 39 84 39 85 0 1 -132 1 -293 2 -379 1 -625
27 -957 100 -232 52 -496 153 -643 247 l-57 37 0 -333z m414 -137 c29 -12 66
-32 80 -46 73 -73 19 -194 -86 -194 -44 0 -130 41 -156 75 -42 53 -21 138 40
168 43 21 56 21 122 -3z"/>
<path d="M0 1400 c0 -370 0 -367 71 -445 174 -188 622 -338 1174 -391 246 -24
814 -19 855 6 10 6 6 18 -17 47 -130 165 -257 463 -297 696 l-7 37 -182 0
c-598 0 -1248 148 -1544 351 -23 16 -44 29 -47 29 -3 0 -6 -149 -6 -330z m437
-155 c56 -26 93 -71 93 -115 0 -55 -65 -120 -120 -120 -11 0 -49 13 -84 29
-77 35 -101 71 -93 135 12 90 99 120 204 71z"/>
</g>
</svg>
