<?xml version="1.0" standalone="no"?>
<!DOCTYPE svg PUBLIC "-//W3C//DTD SVG 20010904//EN"
 "http://www.w3.org/TR/2001/REC-SVG-20010904/DTD/svg10.dtd">
<svg version="1.0" xmlns="http://www.w3.org/2000/svg"
 width="490.000000pt" height="490.000000pt" viewBox="0 0 490.000000 490.000000"
 preserveAspectRatio="xMidYMid meet">

<g transform="translate(0.000000,490.000000) scale(0.100000,-0.100000)"
fill="#000000" stroke="none">
<path d="M1425 4740 c-626 -34 -1160 -194 -1354 -406 -99 -108 -94 -176 23
-289 352 -342 1486 -494 2376 -319 497 98 860 298 860 474 0 96 -114 205 -312
300 -375 179 -994 272 -1593 240z"/>
<path d="M2 3456 l3 -344 30 -44 c45 -63 136 -131 255 -192 226 -116 518 -192
915 -238 123 -15 764 -18 855 -5 54 8 58 10 127 91 179 207 455 389 727 480
89 30 240 62 384 82 l32 5 0 254 c0 140 -2 255 -4 255 -3 0 -25 -14 -50 -31
-70 -47 -259 -133 -379 -173 -215 -71 -441 -118 -732 -153 -187 -22 -777 -25
-950 -5 -508 58 -908 172 -1148 325 -32 21 -60 37 -63 37 -2 0 -3 -155 -2
-344z m432 -120 c65 -29 91 -64 91 -123 0 -53 -42 -101 -97 -110 -53 -8 -160
43 -183 88 -40 76 12 169 95 169 22 0 64 -11 94 -24z"/>
<path d="M3304 3050 c-644 -74 -1146 -528 -1281 -1160 -26 -121 -26 -449 0
-570 102 -475 425 -868 865 -1052 206 -86 449 -125 669 -107 203 16 347 55
528 143 410 200 703 588 791 1046 24 128 24 378 0 510 -110 601 -584 1071
-1186 1176 -106 18 -292 25 -386 14z m183 -531 c32 -12 677 -650 699 -691 46
-87 -28 -191 -124 -173 -31 6 -74 44 -269 238 l-233 231 0 -592 c0 -651 1
-635 -60 -667 -37 -19 -73 -19 -110 0 -63 33 -60 1 -60 657 0 329 -3 598 -8
598 -4 0 -108 -101 -232 -225 -240 -240 -262 -256 -325 -235 -51 17 -75 53
-75 114 l0 50 333 334 c182 184 346 343 362 353 34 21 61 24 102 8z"/>
<path d="M0 2437 c0 -381 0 -380 89 -465 238 -228 883 -391 1549 -392 l122 0
0 55 c0 203 59 463 151 664 22 46 39 84 39 85 0 1 -132 1 -293 2 -379 1 -625
27 -957 100 -232 52 -496 153 -643 247 l-57 37 0 -333z m435 -147 c62 -30 95
-69 95 -114 0 -62 -57 -116 -122 -116 -44 0 -130 41 -156 75 -42 53 -21 138
40 168 47 23 72 21 143 -13z"/>
<path d="M0 1400 c0 -370 0 -367 71 -445 173 -188 625 -338 1174 -391 245 -23
814 -19 855 6 10 6 6 18 -17 47 -130 165 -257 463 -297 696 l-7 37 -183 0
c-414 0 -894 76 -1211 192 -116 43 -274 119 -338 162 -21 14 -40 26 -42 26 -3
0 -5 -149 -5 -330z m437 -155 c56 -26 93 -71 93 -115 0 -55 -65 -120 -120
-120 -11 0 -49 13 -84 29 -77 35 -101 71 -93 135 12 90 99 120 204 71z"/>
</g>
</svg>
