<?xml version="1.0" standalone="no"?>
<!DOCTYPE svg PUBLIC "-//W3C//DTD SVG 20010904//EN"
 "http://www.w3.org/TR/2001/REC-SVG-20010904/DTD/svg10.dtd">
<svg version="1.0" xmlns="http://www.w3.org/2000/svg"
 width="2042.000000pt" height="2042.000000pt" viewBox="0 0 2042.000000 2042.000000"
 preserveAspectRatio="xMidYMid meet">

<g transform="translate(0.000000,2042.000000) scale(0.100000,-0.100000)"
fill="#000000" stroke="none">
<path d="M9825 20404 c-1197 -77 -2305 -460 -3226 -1116 -965 -688 -1661
-1613 -2034 -2705 l-28 -83 -96 0 c-194 0 -479 -27 -711 -66 -765 -131 -1512
-489 -2115 -1015 -215 -187 -470 -462 -649 -698 -937 -1237 -1187 -2930 -651
-4406 299 -825 807 -1526 1500 -2069 111 -88 395 -277 524 -351 144 -81 399
-203 556 -265 206 -80 532 -180 589 -180 7 0 18 24 25 58 209 963 528 1699
1069 2465 398 564 731 935 1162 1294 212 176 638 485 858 621 498 310 1000
536 1544 696 202 59 736 188 978 235 352 68 503 84 890 89 572 7 989 -27 1401
-114 700 -147 1174 -294 1649 -509 364 -165 688 -356 1100 -651 399 -285 593
-447 875 -729 294 -294 451 -482 751 -903 251 -351 381 -565 545 -892 227
-454 371 -860 500 -1404 34 -144 63 -262 63 -263 3 -5 181 42 311 82 974 302
1823 949 2398 1826 596 909 852 1990 732 3098 -98 896 -463 1751 -1053 2464
-103 125 -372 398 -512 519 -516 448 -1133 770 -1795 937 -315 79 -714 131
-1017 131 l-96 0 -23 68 c-321 977 -959 1877 -1804 2544 -910 717 -2005 1150
-3225 1274 -148 15 -835 27 -985 18z"/>
<path d="M9700 12093 c-123 -9 -447 -58 -625 -94 -1452 -290 -2697 -1038
-3602 -2164 -579 -722 -1006 -1620 -1202 -2530 -62 -289 -81 -531 -88 -1100
-10 -821 23 -1176 157 -1667 479 -1754 1691 -3205 3304 -3955 946 -439 2060
-633 3091 -538 770 71 1350 228 2025 545 1020 481 1857 1209 2482 2160 157
238 239 382 378 665 314 637 524 1342 580 1945 45 500 32 1202 -31 1645 -70
490 -252 1083 -489 1594 -479 1033 -1274 1941 -2246 2562 -757 485 -1704 821
-2544 904 -280 27 -470 35 -810 33 -184 -1 -355 -3 -380 -5z m607 -2208 c65
-19 125 -67 359 -284 360 -336 784 -750 1505 -1470 701 -702 979 -988 1067
-1100 53 -66 83 -148 89 -241 21 -299 -227 -551 -520 -527 -168 14 -263 98
-1418 1244 l-724 718 -6 -2310 c-6 -2361 -7 -2459 -45 -2664 -28 -154 -59
-200 -171 -259 -185 -96 -323 -97 -505 -6 -154 78 -182 140 -209 459 -6 69
-14 1002 -19 2210 -8 1895 -17 2525 -34 2542 -3 3 -20 -6 -38 -19 -45 -35
-456 -435 -1063 -1038 -280 -278 -559 -548 -618 -600 -284 -249 -398 -304
-548 -266 -188 48 -301 149 -346 310 -8 30 -17 120 -20 217 l-6 166 1204 1205
c1338 1339 1637 1629 1740 1683 37 19 84 39 105 45 49 12 154 5 221 -15z"/>
</g>
</svg>
