<?xml version="1.0" standalone="no"?>
<!DOCTYPE svg PUBLIC "-//W3C//DTD SVG 20010904//EN"
 "http://www.w3.org/TR/2001/REC-SVG-20010904/DTD/svg10.dtd">
<svg version="1.0" xmlns="http://www.w3.org/2000/svg"
 width="466.000000pt" height="466.000000pt" viewBox="0 0 466.000000 466.000000"
 preserveAspectRatio="xMidYMid meet">

<g transform="translate(0.000000,466.000000) scale(0.100000,-0.100000)"
fill="#000000" stroke="none">
<path d="M2040 4653 c-743 -40 -1376 -223 -1624 -469 -56 -56 -96 -132 -96
-184 1 -110 136 -249 345 -352 802 -399 2463 -409 3290 -19 127 60 203 109
272 174 106 100 134 185 91 278 -93 200 -488 390 -1023 493 -358 69 -864 101
-1255 79z"/>
<path d="M320 3228 c0 -347 2 -376 20 -416 29 -65 65 -106 143 -165 256 -193
702 -328 1297 -393 203 -22 685 -30 906 -15 667 45 1222 197 1501 412 63 49
105 100 133 160 18 41 20 67 20 417 0 204 -2 372 -3 372 -2 0 -42 -25 -88 -57
-637 -428 -2142 -551 -3219 -262 -247 67 -476 164 -621 263 -44 31 -82 56 -85
56 -2 0 -4 -168 -4 -372z"/>
<path d="M322 2103 l3 -388 27 -47 c78 -132 308 -270 615 -368 712 -228 1796
-247 2569 -45 394 103 679 256 772 415 l27 45 3 388 3 387 -73 -49 c-149 -100
-322 -179 -543 -246 -1072 -326 -2666 -208 -3332 245 l-74 51 3 -388z"/>
<path d="M320 998 c0 -372 0 -373 24 -423 26 -54 112 -143 189 -194 83 -56
268 -139 423 -190 600 -198 1512 -247 2254 -120 371 63 731 184 917 309 77 52
163 141 189 195 24 50 24 51 24 423 0 204 -2 372 -5 372 -3 0 -26 -15 -52 -34
-287 -202 -762 -345 -1373 -413 -233 -26 -932 -26 -1160 0 -599 68 -1050 200
-1345 396 -38 25 -73 47 -77 49 -5 2 -8 -164 -8 -370z"/>
</g>
</svg>
